<svg width="619" height="619" viewBox="0 0 619 619" fill="none" xmlns="http://www.w3.org/2000/svg">
<g clip-path="url(#clip0_113_20)">
<path d="M619 309.5C619 138.568 480.432 0 309.5 0C138.568 0 0 138.568 0 309.5C0 480.432 138.568 619 309.5 619C480.432 619 619 480.432 619 309.5Z" fill="#43BC95"/>
<path d="M503.06 231.65V263.37C503.06 265.99 499.76 267.13 498.14 265.08L456.37 219.77C449.28 210.78 438.47 205.54 427.02 205.54H274.01C248.64 205.54 228.07 226.11 228.07 251.48V502.04H152.04C133.79 502.04 119 487.25 119 469V199.26C119 154.36 155.39 117.97 200.29 117.97H389.38C402.57 117.97 415.24 120.21 427.02 124.35C443.27 130.04 457.84 139.34 469.77 151.26C473.66 155.15 477.26 159.31 480.55 163.72C494.69 182.67 503.06 206.18 503.06 231.64V231.65Z" fill="#231F20"/>
<path d="M318.2 370.91C354.314 370.91 383.59 341.634 383.59 305.52C383.59 269.406 354.314 240.13 318.2 240.13C282.086 240.13 252.81 269.406 252.81 305.52C252.81 341.634 282.086 370.91 318.2 370.91Z" fill="#231F20"/>
<path d="M528.63 404.26L468.35 388.68C458.43 386.12 447.87 389.97 442.18 398.48C420.65 430.64 383.99 451.81 342.38 451.81C315.23 451.81 290.19 442.8 270.09 427.6C261.75 421.29 268.88 408.25 278.67 411.93C291.8 416.87 306.03 419.56 320.89 419.56C358.71 419.56 392.44 402.08 414.44 374.74C422.56 364.63 429.1 353.17 433.64 340.76C438.34 327.91 440.9 314.02 440.9 299.54C440.9 299.36 440.9 299.19 440.9 299.01C440.86 289.48 454.28 287.28 457.09 296.38C457.64 298.17 458.16 299.98 458.63 301.81C461.86 314.39 468.06 326.01 476.35 335.99L530.55 401.22C531.72 402.63 530.4 404.71 528.63 404.25V404.26Z" fill="#231F20"/>
<path d="M352.23 316.27C362.619 316.27 371.04 307.848 371.04 297.46C371.04 287.071 362.619 278.65 352.23 278.65C341.842 278.65 333.42 287.071 333.42 297.46C333.42 307.848 341.842 316.27 352.23 316.27Z" fill="white"/>
</g>
<defs>
<clipPath id="clip0_113_20">
<rect width="619" height="619" fill="white"/>
</clipPath>
</defs>
</svg>
